<svg xmlns="http://www.w3.org/2000/svg" xmlns:xlink="http://www.w3.org/1999/xlink" width="80" zoomAndPan="magnify" viewBox="0 0 60 60" height="80" preserveAspectRatio="xMidYMid meet" version="1.0"><defs><clipPath id="18a6bb9a1a"><path d="M 9 15 L 51.34375 15 L 51.34375 45 L 9 45 Z M 9 15 " clip-rule="nonzero"/></clipPath></defs><rect x="-6" width="72" fill="#ffffff" y="-6" height="72" fill-opacity="1"/><rect x="-6" width="72" fill="#2663eb" y="-6" height="72" fill-opacity="1"/><g clip-path="url(#18a6bb9a1a)"><path fill="#ffffff" d="M 23.410156 17.402344 L 23.410156 30.472656 C 21.84375 28.941406 19.679688 28.027344 17.300781 28.121094 C 13.089844 28.285156 9.609375 31.695312 9.347656 35.925781 C 9.046875 40.78125 12.871094 44.808594 17.632812 44.808594 C 19.878906 44.808594 21.917969 43.910156 23.410156 42.449219 C 23.410156 43.171875 23.992188 43.757812 24.710938 43.757812 L 31.710938 43.757812 C 28.949219 43.757812 26.507812 42.398438 24.996094 40.3125 C 25.148438 40.019531 25.285156 39.714844 25.402344 39.402344 C 25.402344 39.394531 25.402344 39.390625 25.40625 39.382812 C 25.433594 39.316406 25.453125 39.253906 25.476562 39.1875 C 25.5 39.121094 25.519531 39.054688 25.542969 38.988281 C 25.570312 38.898438 25.597656 38.808594 25.625 38.714844 C 25.625 38.710938 25.625 38.703125 25.628906 38.695312 C 25.644531 38.636719 25.660156 38.578125 25.675781 38.519531 C 25.675781 38.515625 25.675781 38.515625 25.675781 38.515625 C 25.683594 38.492188 25.6875 38.464844 25.695312 38.4375 C 25.710938 38.378906 25.722656 38.320312 25.734375 38.261719 C 25.738281 38.25 25.738281 38.234375 25.742188 38.222656 C 25.746094 38.207031 25.75 38.191406 25.753906 38.175781 C 25.757812 38.164062 25.757812 38.152344 25.761719 38.144531 C 25.769531 38.097656 25.777344 38.050781 25.785156 38.007812 C 25.789062 38 25.789062 37.992188 25.789062 37.984375 C 25.792969 37.980469 25.792969 37.976562 25.792969 37.96875 C 25.800781 37.929688 25.808594 37.890625 25.8125 37.855469 C 25.820312 37.820312 25.824219 37.789062 25.828125 37.757812 C 25.832031 37.75 25.832031 37.746094 25.832031 37.738281 C 25.84375 37.65625 25.855469 37.574219 25.867188 37.488281 C 25.871094 37.449219 25.875 37.410156 25.878906 37.371094 C 25.882812 37.359375 25.882812 37.347656 25.882812 37.332031 C 25.886719 37.304688 25.890625 37.273438 25.890625 37.246094 C 25.894531 37.242188 25.894531 37.238281 25.894531 37.234375 C 25.894531 37.226562 25.894531 37.214844 25.894531 37.207031 C 25.902344 37.152344 25.90625 37.101562 25.90625 37.046875 C 25.910156 37.042969 25.910156 37.035156 25.910156 37.03125 C 25.910156 37.003906 25.914062 36.972656 25.914062 36.945312 C 25.914062 36.941406 25.914062 36.933594 25.914062 36.929688 C 25.917969 36.902344 25.917969 36.875 25.917969 36.847656 C 25.921875 36.8125 25.921875 36.777344 25.921875 36.746094 C 25.921875 36.738281 25.921875 36.730469 25.921875 36.722656 C 25.925781 36.636719 25.929688 36.550781 25.929688 36.464844 C 25.929688 36.40625 25.925781 36.347656 25.925781 36.292969 C 25.925781 36.273438 25.925781 36.25 25.925781 36.230469 C 25.925781 36.210938 25.921875 36.191406 25.921875 36.171875 C 25.921875 36.140625 25.921875 36.113281 25.917969 36.082031 C 25.917969 36.066406 25.917969 36.050781 25.917969 36.035156 C 25.917969 36.027344 25.917969 36.023438 25.917969 36.015625 C 25.917969 36.003906 25.914062 35.992188 25.914062 35.984375 C 25.914062 35.972656 25.914062 35.964844 25.914062 35.953125 C 25.914062 35.949219 25.914062 35.945312 25.910156 35.9375 C 25.910156 35.917969 25.910156 35.898438 25.910156 35.878906 C 25.90625 35.859375 25.90625 35.839844 25.902344 35.820312 C 25.902344 35.816406 25.902344 35.8125 25.902344 35.808594 C 25.902344 35.765625 25.898438 35.722656 25.890625 35.679688 C 25.890625 35.660156 25.886719 35.636719 25.886719 35.617188 C 25.886719 35.609375 25.886719 35.601562 25.882812 35.59375 C 25.878906 35.527344 25.871094 35.464844 25.863281 35.398438 C 25.859375 35.375 25.855469 35.347656 25.851562 35.324219 C 25.847656 35.289062 25.84375 35.257812 25.839844 35.226562 C 25.835938 35.207031 25.832031 35.1875 25.828125 35.167969 C 25.824219 35.148438 25.824219 35.128906 25.820312 35.113281 C 25.8125 35.066406 25.804688 35.019531 25.796875 34.976562 C 25.796875 34.96875 25.792969 34.960938 25.792969 34.953125 C 25.78125 34.898438 25.773438 34.84375 25.761719 34.789062 C 25.757812 34.769531 25.753906 34.746094 25.746094 34.726562 C 25.742188 34.695312 25.734375 34.664062 25.726562 34.632812 C 25.722656 34.601562 25.714844 34.574219 25.707031 34.542969 C 25.703125 34.519531 25.695312 34.496094 25.691406 34.472656 C 25.683594 34.441406 25.675781 34.410156 25.667969 34.382812 C 25.660156 34.355469 25.652344 34.328125 25.648438 34.300781 C 25.632812 34.253906 25.621094 34.203125 25.609375 34.152344 C 25.605469 34.148438 25.605469 34.140625 25.601562 34.136719 C 25.59375 34.113281 25.589844 34.089844 25.582031 34.066406 C 25.566406 34.015625 25.550781 33.964844 25.535156 33.914062 C 25.527344 33.890625 25.519531 33.867188 25.511719 33.84375 C 25.503906 33.824219 25.5 33.804688 25.492188 33.785156 C 25.488281 33.769531 25.484375 33.753906 25.476562 33.738281 C 25.472656 33.722656 25.464844 33.707031 25.460938 33.6875 C 25.441406 33.636719 25.421875 33.585938 25.40625 33.539062 C 25.382812 33.472656 25.355469 33.414062 25.332031 33.351562 C 25.304688 33.285156 25.28125 33.222656 25.253906 33.160156 C 25.242188 33.136719 25.234375 33.113281 25.222656 33.085938 C 25.203125 33.046875 25.1875 33.007812 25.167969 32.96875 C 25.164062 32.957031 25.15625 32.945312 25.152344 32.933594 C 25.144531 32.921875 25.140625 32.910156 25.132812 32.894531 C 25.085938 32.800781 25.039062 32.703125 24.992188 32.605469 C 24.988281 32.601562 24.988281 32.597656 24.984375 32.59375 C 24.953125 32.535156 24.921875 32.476562 24.890625 32.417969 C 24.859375 32.363281 24.828125 32.308594 24.796875 32.253906 C 24.792969 32.25 24.792969 32.246094 24.789062 32.242188 C 24.769531 32.203125 24.746094 32.164062 24.71875 32.125 C 24.671875 32.042969 24.621094 31.964844 24.570312 31.886719 C 24.535156 31.832031 24.5 31.777344 24.460938 31.722656 C 24.453125 31.710938 24.445312 31.695312 24.433594 31.683594 C 24.414062 31.660156 24.398438 31.632812 24.378906 31.605469 C 24.375 31.601562 24.375 31.601562 24.375 31.597656 C 24.367188 31.585938 24.359375 31.574219 24.347656 31.5625 L 24.34375 31.558594 C 24.328125 31.535156 24.3125 31.515625 24.300781 31.496094 C 24.289062 31.480469 24.28125 31.472656 24.273438 31.457031 C 24.253906 31.4375 24.238281 31.414062 24.222656 31.394531 C 24.1875 31.347656 24.152344 31.300781 24.113281 31.253906 C 24.097656 31.234375 24.082031 31.21875 24.066406 31.199219 C 24.035156 31.15625 24 31.117188 23.964844 31.074219 C 23.921875 31.023438 23.875 30.96875 23.832031 30.917969 C 23.804688 30.886719 23.777344 30.855469 23.746094 30.824219 C 23.714844 30.789062 23.683594 30.753906 23.648438 30.71875 C 23.636719 30.703125 23.621094 30.6875 23.605469 30.671875 C 23.621094 30.6875 23.636719 30.703125 23.648438 30.71875 C 23.683594 30.753906 23.714844 30.789062 23.746094 30.824219 C 23.777344 30.855469 23.804688 30.886719 23.832031 30.917969 C 23.878906 30.96875 23.921875 31.019531 23.964844 31.074219 C 24 31.113281 24.035156 31.15625 24.066406 31.199219 C 24.082031 31.214844 24.097656 31.234375 24.113281 31.253906 C 24.152344 31.300781 24.1875 31.347656 24.222656 31.394531 C 24.238281 31.414062 24.253906 31.4375 24.273438 31.457031 C 24.28125 31.472656 24.289062 31.484375 24.300781 31.496094 C 24.3125 31.515625 24.328125 31.535156 24.34375 31.558594 L 24.347656 31.5625 C 25.773438 28.816406 28.667969 26.960938 31.984375 27.070312 C 36.222656 27.207031 39.730469 30.625 39.996094 34.878906 C 40.296875 39.730469 36.472656 43.757812 31.714844 43.757812 L 49.613281 43.757812 C 50.421875 43.757812 51.078125 43.101562 51.078125 42.289062 L 51.078125 17.402344 C 51.078125 16.589844 50.421875 15.933594 49.613281 15.933594 L 24.875 15.933594 C 24.066406 15.933594 23.414062 16.589844 23.414062 17.402344 Z M 24.804688 40.660156 Z M 24.824219 40.625 C 24.859375 40.558594 24.894531 40.492188 24.933594 40.425781 C 24.894531 40.492188 24.859375 40.558594 24.824219 40.625 Z M 24.824219 40.625 " fill-opacity="1" fill-rule="nonzero"/></g></svg>
