<svg width="250" height="60" viewBox="0 0 250 60" fill="none" xmlns="http://www.w3.org/2000/svg">
<path d="M20 11H8C6.34315 11 5 12.3431 5 14V26C5 27.6569 6.34315 29 8 29H20C21.6569 29 23 27.6569 23 26V14C23 12.3431 21.6569 11 20 11Z" fill="#161616"/>
<path d="M20 31.0002H8C6.34315 31.0002 5 32.3434 5 34.0002V46.0002C5 47.6571 6.34315 49.0002 8 49.0002H20C21.6569 49.0002 23 47.6571 23 46.0002V34.0002C23 32.3434 21.6569 31.0002 20 31.0002Z" fill="#161616"/>
<path d="M39.9999 31.0002H27.9999C26.343 31.0002 24.9999 32.3434 24.9999 34.0002V46.0002C24.9999 47.6571 26.343 49.0002 27.9999 49.0002H39.9999C41.6567 49.0002 42.9999 47.6571 42.9999 46.0002V34.0002C42.9999 32.3434 41.6567 31.0002 39.9999 31.0002Z" fill="#161616"/>
<path d="M33.9999 29C38.9704 29 42.9999 24.9706 42.9999 20C42.9999 15.0294 38.9704 11 33.9999 11C29.0293 11 24.9999 15.0294 24.9999 20C24.9999 24.9706 29.0293 29 33.9999 29Z" fill="#9FE870"/>
<path d="M75.194 46.964V41.7455C75.194 41.1538 75.2295 40.5503 75.3005 39.935C75.3715 39.296 75.4662 38.6452 75.5845 37.9825C75.7265 37.3198 75.8685 36.6572 76.0105 35.9945H75.3005C74.9692 37.1305 74.5313 38.1127 73.987 38.941C73.4427 39.7693 72.7563 40.4083 71.928 40.858C71.0997 41.284 70.082 41.497 68.875 41.497C67.2183 41.497 65.8338 41.071 64.7215 40.219C63.6092 39.367 62.769 38.2192 62.201 36.7755C61.633 35.3082 61.349 33.6515 61.349 31.8055C61.349 29.7702 61.6567 28.0188 62.272 26.5515C62.911 25.0605 63.8222 23.9127 65.0055 23.108C66.1888 22.2797 67.597 21.8655 69.23 21.8655C70.366 21.8655 71.36 22.0785 72.212 22.5045C73.064 22.9305 73.7622 23.5577 74.3065 24.386C74.8508 25.2143 75.2177 26.2675 75.407 27.5455H76.117L76.046 22.398H80.306V31.6635V46.964H75.194ZM70.7565 37.4145C71.3245 37.4145 71.8333 37.308 72.283 37.095C72.7563 36.8583 73.1705 36.5625 73.5255 36.2075C73.8805 35.8288 74.1763 35.4147 74.413 34.965C74.6733 34.5153 74.8627 34.042 74.981 33.545C75.123 33.048 75.194 32.5747 75.194 32.125V31.4505C75.194 30.8825 75.0993 30.279 74.91 29.64C74.7443 29.001 74.484 28.4212 74.129 27.9005C73.7977 27.3562 73.3598 26.9183 72.8155 26.587C72.2712 26.232 71.6085 26.0545 70.8275 26.0545C69.9992 26.0545 69.2773 26.2912 68.662 26.7645C68.0467 27.2378 67.5615 27.9005 67.2065 28.7525C66.8752 29.6045 66.7095 30.6222 66.7095 31.8055C66.7095 32.8942 66.8752 33.8645 67.2065 34.7165C67.5378 35.5448 67.9993 36.2075 68.591 36.7045C69.1827 37.1778 69.9045 37.4145 70.7565 37.4145ZM91.3349 41.497C89.1575 41.497 87.5127 40.7633 86.4004 39.296C85.3117 37.805 84.7674 35.5448 84.7674 32.5155V22.3625H89.8794V31.8765C89.8794 33.6988 90.1515 35.0597 90.6959 35.959C91.2402 36.8347 92.0685 37.2725 93.1809 37.2725C93.8435 37.2725 94.4234 37.1068 94.9204 36.7755C95.4174 36.4442 95.8434 35.9827 96.1984 35.391C96.5534 34.7993 96.8137 34.1012 96.9794 33.2965C97.1687 32.4918 97.2752 31.628 97.2989 30.705V22.3625H102.411V33.403V41H98.2929L98.2574 35.178H97.6184C97.2634 36.6453 96.8137 37.8523 96.2694 38.799C95.7487 39.722 95.0742 40.4083 94.2459 40.858C93.4412 41.284 92.4709 41.497 91.3349 41.497ZM107.099 41V22.3625H112.211V41H107.099ZM109.691 19.558C108.697 19.558 107.928 19.3568 107.383 18.9545C106.863 18.5285 106.602 17.9132 106.602 17.1085C106.602 16.2802 106.863 15.653 107.383 15.227C107.928 14.801 108.697 14.588 109.691 14.588C110.709 14.588 111.478 14.801 111.998 15.227C112.543 15.653 112.815 16.2802 112.815 17.1085C112.815 17.8895 112.543 18.493 111.998 18.919C111.478 19.345 110.709 19.558 109.691 19.558ZM125.572 41.497C123.962 41.497 122.554 41.2603 121.347 40.787C120.14 40.3137 119.134 39.651 118.33 38.799C117.525 37.947 116.921 36.9412 116.519 35.7815C116.117 34.5982 115.916 33.3083 115.916 31.912C115.916 30.4447 116.117 29.1075 116.519 27.9005C116.945 26.6698 117.56 25.6048 118.365 24.7055C119.17 23.8062 120.164 23.108 121.347 22.611C122.53 22.114 123.879 21.8655 125.394 21.8655C126.909 21.8655 128.222 22.114 129.335 22.611C130.471 23.108 131.382 23.8062 132.068 24.7055C132.778 25.5812 133.263 26.6225 133.524 27.8295L128.802 29.356C128.731 28.6223 128.53 27.9952 128.199 27.4745C127.891 26.9302 127.465 26.5278 126.921 26.2675C126.4 25.9835 125.808 25.8415 125.146 25.8415C124.459 25.8415 123.868 25.9835 123.371 26.2675C122.874 26.5278 122.448 26.9183 122.093 27.439C121.761 27.936 121.501 28.5513 121.312 29.285C121.146 29.995 121.063 30.7997 121.063 31.699C121.063 32.977 121.229 34.0657 121.56 34.965C121.915 35.8407 122.424 36.5152 123.087 36.9885C123.773 37.4382 124.613 37.663 125.607 37.663C126.554 37.663 127.311 37.4855 127.879 37.1305C128.447 36.7518 128.861 36.2785 129.122 35.7105C129.406 35.1188 129.583 34.5153 129.654 33.9L134.127 34.894C134.009 35.817 133.748 36.6808 133.346 37.4855C132.967 38.2902 132.423 38.9883 131.713 39.58C131.003 40.1717 130.139 40.645 129.122 41C128.128 41.3313 126.944 41.497 125.572 41.497ZM137.052 41V15.6175H142.093V29.711C142.827 29.214 143.525 28.6815 144.188 28.1135C144.874 27.5218 145.49 26.9065 146.034 26.2675C146.602 25.6285 147.099 24.9777 147.525 24.315C147.975 23.6523 148.353 23.0015 148.661 22.3625H154.518C154.163 23.2618 153.69 24.173 153.098 25.096C152.53 25.9953 151.844 26.8355 151.039 27.6165C150.258 28.3738 149.347 29.0247 148.306 29.569C147.265 30.1133 146.117 30.4802 144.862 30.6695V31.273C146.448 30.989 147.762 31.0127 148.803 31.344C149.844 31.6753 150.696 32.2078 151.359 32.9415C152.045 33.6515 152.59 34.4798 152.992 35.4265C153.394 36.3495 153.761 37.2843 154.092 38.231L154.909 41H149.335L148.874 39.2605C148.543 38.1008 148.176 37.0832 147.773 36.2075C147.371 35.3318 146.839 34.6573 146.176 34.184C145.537 33.687 144.649 33.4385 143.513 33.4385H142.093V41H137.052ZM165.482 41.497C164.227 41.497 163.091 41.3787 162.074 41.142C161.056 40.9053 160.18 40.5622 159.447 40.1125C158.713 39.6628 158.121 39.1303 157.672 38.515C157.222 37.876 156.926 37.166 156.784 36.385L160.689 34.7875C160.784 35.3082 161.044 35.7933 161.47 36.243C161.896 36.6927 162.464 37.0595 163.174 37.3435C163.908 37.6038 164.783 37.734 165.801 37.734C166.89 37.734 167.73 37.5802 168.322 37.2725C168.913 36.9412 169.209 36.4797 169.209 35.888C169.209 35.4383 169.043 35.0833 168.712 34.823C168.381 34.5627 167.896 34.3378 167.257 34.1485C166.618 33.9592 165.848 33.7817 164.949 33.616C164.073 33.403 163.174 33.1782 162.251 32.9415C161.352 32.7048 160.512 32.3735 159.731 31.9475C158.973 31.5215 158.346 30.9653 157.849 30.279C157.376 29.569 157.139 28.6697 157.139 27.581C157.139 26.445 157.447 25.451 158.062 24.599C158.677 23.747 159.577 23.0843 160.76 22.611C161.943 22.114 163.387 21.8655 165.091 21.8655C166.629 21.8655 167.978 22.0785 169.138 22.5045C170.298 22.9068 171.244 23.4985 171.978 24.2795C172.735 25.0368 173.244 25.948 173.505 27.013L169.351 28.3975C169.256 27.8295 169.02 27.3325 168.641 26.9065C168.286 26.4805 167.801 26.161 167.186 25.948C166.594 25.735 165.896 25.6285 165.091 25.6285C164.073 25.6285 163.281 25.7942 162.713 26.1255C162.168 26.4568 161.896 26.8947 161.896 27.439C161.896 27.8887 162.074 28.2555 162.429 28.5395C162.807 28.8235 163.328 29.0602 163.991 29.2495C164.653 29.4152 165.434 29.5927 166.334 29.782C167.28 29.9713 168.203 30.1962 169.103 30.4565C170.002 30.6932 170.807 31.0127 171.517 31.415C172.25 31.8173 172.83 32.3498 173.256 33.0125C173.682 33.6752 173.895 34.5272 173.895 35.5685C173.895 36.7992 173.564 37.8642 172.901 38.7635C172.238 39.6392 171.28 40.3137 170.026 40.787C168.771 41.2603 167.257 41.497 165.482 41.497ZM177.406 41V31.983V22.3625H181.63L181.666 28.717H182.34C182.53 27.1313 182.849 25.8415 183.299 24.8475C183.772 23.8535 184.423 23.1198 185.251 22.6465C186.08 22.1732 187.109 21.9365 188.34 21.9365C188.553 21.9365 188.778 21.9483 189.014 21.972C189.275 21.972 189.571 22.0075 189.902 22.0785L189.689 27.51C189.334 27.3443 188.943 27.226 188.517 27.155C188.091 27.084 187.713 27.0485 187.381 27.0485C186.458 27.0485 185.666 27.2615 185.003 27.6875C184.34 28.1135 183.796 28.7288 183.37 29.5335C182.968 30.3145 182.695 31.273 182.553 32.409V41H177.406ZM197.821 41L191.609 22.398H197.253L201.194 36.953H201.762L205.702 22.398H211.134L204.886 41H197.821Z" fill="black"/>
<path d="M214.404 41.4615C213.291 41.4615 212.451 41.2248 211.883 40.7515C211.339 40.2782 211.067 39.5445 211.067 38.5505C211.067 37.5328 211.339 36.7873 211.883 36.314C212.451 35.8407 213.291 35.604 214.404 35.604C215.54 35.604 216.38 35.8407 216.924 36.314C217.492 36.7873 217.776 37.5328 217.776 38.5505C217.776 40.4912 216.652 41.4615 214.404 41.4615ZM220.845 41V22.3625H225.957V41H220.845ZM223.436 19.558C222.442 19.558 221.673 19.3568 221.129 18.9545C220.608 18.5285 220.348 17.9132 220.348 17.1085C220.348 16.2802 220.608 15.653 221.129 15.227C221.673 14.801 222.442 14.588 223.436 14.588C224.454 14.588 225.223 14.801 225.744 15.227C226.288 15.653 226.56 16.2802 226.56 17.1085C226.56 17.8895 226.288 18.493 225.744 18.919C225.223 19.345 224.454 19.558 223.436 19.558ZM239.14 41.497C237.27 41.497 235.625 41.1302 234.205 40.3965C232.785 39.6392 231.673 38.5387 230.868 37.095C230.063 35.6277 229.661 33.8053 229.661 31.628C229.661 29.4507 230.063 27.6402 230.868 26.1965C231.696 24.7528 232.821 23.676 234.241 22.966C235.684 22.2323 237.317 21.8655 239.14 21.8655C241.009 21.8655 242.654 22.2323 244.074 22.966C245.518 23.6997 246.642 24.8002 247.447 26.2675C248.275 27.7112 248.689 29.5217 248.689 31.699C248.689 33.9 248.263 35.7342 247.411 37.2015C246.583 38.6452 245.447 39.722 244.003 40.432C242.583 41.142 240.962 41.497 239.14 41.497ZM239.317 37.6985C240.24 37.6985 241.009 37.4855 241.625 37.0595C242.264 36.6335 242.737 35.9945 243.045 35.1425C243.376 34.2668 243.542 33.2137 243.542 31.983C243.542 30.6813 243.364 29.5808 243.009 28.6815C242.678 27.7585 242.181 27.0603 241.518 26.587C240.855 26.09 240.015 25.8415 238.998 25.8415C238.122 25.8415 237.365 26.0545 236.726 26.4805C236.087 26.8828 235.601 27.5218 235.27 28.3975C234.939 29.2495 234.773 30.3027 234.773 31.557C234.773 33.5687 235.175 35.0952 235.98 36.1365C236.785 37.1778 237.897 37.6985 239.317 37.6985Z" fill="#888888"/>
</svg>
